<?xml version="1.0" encoding="utf-8"?>
<!-- Generator: Adobe Illustrator 21.1.0, SVG Export Plug-In . SVG Version: 6.00 Build 0)  -->
<svg version="1.1" xmlns="http://www.w3.org/2000/svg" xmlns:xlink="http://www.w3.org/1999/xlink" x="0px" y="0px"
	 viewBox="0 0 470.9 238" style="enable-background:new 0 0 470.9 238;" xml:space="preserve">
<g id="Слой_1">
	<path style="fill:#2979FF;" d="M449.8,238H21c-11.7,0-21.1-9.4-21.1-21.1V21.1C-0.1,9.4,9.3,0,21,0h428.8
		c11.7,0,21.1,9.4,21.1,21.1v195.8C470.9,228.6,461.4,238,449.8,238z"/>
</g>
<g id="Слой_1__x28_копия_x29_">
	<path style="fill:none;" d="M273,238h176.8c11.7,0,21.1-9.4,21.1-21.1V40.2L273,238z"/>
	<path style="fill:none;" d="M21,0C9.3,0-0.1,9.4-0.1,21.1v195.8c0,0.7,0,1.4,0.1,2.1L219,0H21z"/>
	<path style="fill:#448AFF;" d="M470.9,21.1c0-11.7-9.4-21.1-21.1-21.1H219L0,219c1.1,10.7,10,19,21,19H273L470.9,40.2V21.1z"/>
</g>
<g id="Слой_3">
	<g>
		<path style="fill:#D0CCE7;" d="M37,17.6c8.3-1.3,19.2-2,30.7-2c19.1,0,31.4,3.3,41.1,10.5c10.4,7.6,17,19.6,17,37
			c0,18.8-7,31.7-16.7,39.7c-10.6,8.6-26.6,12.7-46.3,12.7c-11.8,0-20.1-0.7-25.8-1.5V17.6z M59.8,97.6c1.9,0.4,5.1,0.4,7.9,0.4
			c20.5,0.1,33.9-10.9,33.9-34.3c0.1-20.4-12.1-31.1-31.6-31.1c-5.1,0-8.3,0.4-10.3,0.9V97.6z"/>
	</g>
	<g>
		<path style="fill:#FFFFFF;" d="M37,12.1c8.1-1.3,18.7-2,29.9-2c18.6,0,30.6,3.3,40.1,10.5c10.2,7.5,16.5,19.6,16.5,36.9
			c0,18.7-6.8,31.6-16.3,39.6c-10.3,8.6-26,12.6-45.1,12.6c-11.5,0-19.6-0.7-25.1-1.5V12.1z M59.2,92c1.9,0.4,4.9,0.4,7.7,0.4
			c20,0.1,33.1-10.9,33.1-34.3c0.1-20.3-11.8-31.1-30.8-31.1c-4.9,0-8.1,0.4-10,0.9V92z"/>
	</g>
</g>
</svg>
