<?xml version="1.0" encoding="utf-8"?>
<!-- Generator: Adobe Illustrator 21.1.0, SVG Export Plug-In . SVG Version: 6.00 Build 0)  -->
<svg version="1.1" id="Слой_1" xmlns="http://www.w3.org/2000/svg" xmlns:xlink="http://www.w3.org/1999/xlink" x="0px" y="0px"
	 viewBox="0 0 493 315" enable-background="new 0 0 493 315" xml:space="preserve">
<g id="Слой_3" display="none">
	<rect y="0" display="inline" fill="#E2E2E1" stroke="#000000" stroke-miterlimit="10" width="493" height="315"/>
</g>
<g id="макет1">
	<path fill="#E82B84" d="M445.5,302h-397C33.3,302,21,289.7,21,274.5v-231C21,28.3,33.3,16,48.5,16h397c15.2,0,27.5,12.3,27.5,27.5
		v231C473,289.7,460.7,302,445.5,302z"/>
</g>
<g id="Слой_1__x28_копия_x29_">
</g>
<g id="Слой_2">
	<path fill="#F4F4F4" d="M21,209.5v65.3c0,15,12.2,27.2,27.2,27.2h397.6c15,0,27.2-12.2,27.2-27.2v-65.3L21,209.5L21,209.5z"/>
	<g>
		<path fill="#E82D84" d="M79,255.3c-2,0.7-5.8,1.7-10,1.7c-5.2,0-9.2-1.3-12.1-4.1c-2.8-2.6-4.4-6.7-4.3-11.4
			c0-9.8,7-16.1,17.2-16.1c3.8,0,6.8,0.8,8.2,1.5l-1.2,4.5c-1.7-0.7-3.8-1.3-7-1.3c-6.6,0-11.2,3.9-11.2,11.1
			c0,7,4.3,11.2,10.7,11.2c2,0,3.5-0.3,4.3-0.6v-7.7h-5.5v-4.5H79V255.3z"/>
		<path fill="#E82D84" d="M90.7,228.1c0,1.7-1.2,3-3.2,3c-1.9,0-3.1-1.3-3.1-3s1.3-3.1,3.2-3.1C89.5,225.1,90.7,226.4,90.7,228.1z
			 M84.7,256.7v-22.3h5.7v22.3H84.7z"/>
		<path fill="#E82D84" d="M97.1,256.7v-18.1h-3v-4.2h3v-1c0-2.9,0.8-5.8,2.7-7.6c1.7-1.6,3.9-2.2,5.8-2.2c1.5,0,2.7,0.2,3.6,0.6
			l-0.4,4.4c-0.6-0.2-1.4-0.4-2.4-0.4c-2.8,0-3.8,2.3-3.8,5.1v1.1h4.9v4.2h-4.9v18.1H97.1z"/>
		<path fill="#E82D84" d="M118.2,228v6.4h5.4v4.2h-5.4v9.9c0,2.7,0.7,4.1,2.9,4.1c1,0,1.7-0.1,2.2-0.3l0.1,4.3
			c-0.8,0.3-2.3,0.6-4.1,0.6c-2.1,0-3.8-0.7-4.9-1.8c-1.2-1.3-1.7-3.3-1.7-6.2v-10.5h-3.2v-4.2h3.2v-5L118.2,228z"/>
		<path fill="#E82D84" d="M159.7,255.8c-1.3,0.7-4.3,1.4-8,1.4c-9.8,0-15.8-6.1-15.8-15.6c0-10.2,7.1-16.3,16.5-16.3
			c3.7,0,6.4,0.8,7.5,1.4l-1.2,4.5c-1.5-0.6-3.5-1.2-6.1-1.2c-6.3,0-10.8,3.9-10.8,11.4c0,6.8,4,11.1,10.8,11.1
			c2.3,0,4.7-0.5,6.1-1.1L159.7,255.8z"/>
		<path fill="#E82D84" d="M176.4,256.7l-0.4-2.5h-0.1c-1.4,1.7-3.7,3-6.6,3c-4.5,0-7-3.3-7-6.7c0-5.6,5-8.5,13.3-8.4v-0.4
			c0-1.5-0.6-3.9-4.5-3.9c-2.2,0-4.5,0.7-6,1.7l-1.1-3.7c1.7-1,4.5-2,8.1-2c7.2,0,9.2,4.5,9.2,9.4v8.1c0,2,0.1,4,0.3,5.4
			L176.4,256.7L176.4,256.7z M175.7,245.8c-4-0.1-7.8,0.8-7.8,4.2c0,2.2,1.4,3.2,3.2,3.2c2.2,0,3.9-1.5,4.4-3.1
			c0.1-0.4,0.2-0.9,0.2-1.2L175.7,245.8L175.7,245.8z"/>
		<path fill="#E82D84" d="M187.2,241.6c0-3,0-5.2-0.2-7.2h4.9l0.2,4.3h0.2c1.1-3.2,3.7-4.8,6.1-4.8c0.6,0,0.9,0,1.3,0.1v5.3
			c-0.5-0.1-1-0.2-1.7-0.2c-2.7,0-4.5,1.7-5,4.3c-0.1,0.5-0.2,1.1-0.2,1.7v11.6h-5.6V241.6z"/>
		<path fill="#E82D84" d="M223.7,224.1v26.3c0,2.3,0.1,4.8,0.2,6.3h-5l-0.2-3.5h-0.1c-1.3,2.5-4,4-7.3,4c-5.3,0-9.5-4.5-9.5-11.4
			c0-7.5,4.6-11.9,10-11.9c3.1,0,5.3,1.3,6.3,2.9h0.1v-12.7L223.7,224.1L223.7,224.1z M218,243.7c0-0.5,0-1-0.1-1.5
			c-0.5-2.2-2.3-4-4.9-4c-3.6,0-5.6,3.2-5.6,7.4c0,4.1,2,7.1,5.6,7.1c2.3,0,4.3-1.6,4.9-4c0.1-0.5,0.2-1.1,0.2-1.7L218,243.7
			L218,243.7z"/>
	</g>
	<g>
		<path fill="#AFAFAF" d="M52.7,277.7c0-0.8,0.1-2,0.1-3v-14.3h2.1v7.4l0,0c0.8-1.3,2.1-2.2,4-2.2c2.9,0,5,2.4,5,6
			c0,4.2-2.7,6.3-5.3,6.3c-1.7,0-3.1-0.7-4-2.2h-0.1l-0.1,2L52.7,277.7L52.7,277.7z M54.9,272.9c0,0.3,0,0.5,0.1,0.8
			c0.4,1.5,1.7,2.5,3.2,2.5c2.2,0,3.6-1.8,3.6-4.5c0-2.4-1.2-4.4-3.5-4.4c-1.5,0-2.8,1-3.3,2.6c0,0.2-0.1,0.5-0.1,0.9V272.9z"/>
		<path fill="#AFAFAF" d="M77.3,271.7c0,4.4-3,6.3-5.9,6.3c-3.2,0-5.7-2.3-5.7-6.1c0-4,2.6-6.3,5.9-6.3
			C75.1,265.6,77.3,268.1,77.3,271.7z M68,271.8c0,2.6,1.5,4.5,3.6,4.5c2,0,3.6-1.9,3.6-4.6c0-2-1-4.5-3.5-4.5
			C69.1,267.2,68,269.5,68,271.8z"/>
		<path fill="#AFAFAF" d="M80.1,269.1c0-1.2,0-2.2-0.1-3.2h1.9l0.1,2l0,0c0.6-1.1,2-2.2,3.9-2.2c1.6,0,4.2,1,4.2,5v7.1H88V271
			c0-1.9-0.7-3.5-2.7-3.5c-1.4,0-2.5,1-2.9,2.2c-0.1,0.3-0.1,0.6-0.1,1v7.1h-2.1v-8.7H80.1z"/>
		<path fill="#AFAFAF" d="M103.5,274.4c0,1.2,0,2.3,0.1,3.2h-1.9l-0.1-1.9l0,0c-0.6,1-1.8,2.2-3.9,2.2c-1.9,0-4.1-1-4.1-5.2v-6.9
			h2.1v6.5c0,2.2,0.7,3.8,2.6,3.8c1.4,0,2.4-1,2.8-2c0.1-0.3,0.2-0.7,0.2-1.1v-7.2h2.1v8.6H103.5z"/>
		<path fill="#AFAFAF" d="M106.7,275.5c0.6,0.4,1.8,0.9,2.8,0.9c1.6,0,2.3-0.8,2.3-1.8s-0.6-1.6-2.2-2.2c-2.1-0.8-3.1-1.9-3.1-3.3
			c0-1.9,1.5-3.5,4.1-3.5c1.2,0,2.2,0.3,2.9,0.7l-0.5,1.6c-0.5-0.3-1.3-0.7-2.4-0.7c-1.3,0-2,0.7-2,1.6c0,1,0.7,1.4,2.2,2
			c2,0.8,3.1,1.8,3.1,3.6c0,2.1-1.6,3.5-4.4,3.5c-1.3,0-2.5-0.3-3.3-0.8L106.7,275.5z"/>
	</g>
</g>
<g id="Слой_6">
	
		<linearGradient id="SVGID_1_" gradientUnits="userSpaceOnUse" x1="21" y1="634.4939" x2="473" y2="634.4939" gradientTransform="matrix(1 0 0 1 0 -526)">
		<stop  offset="0" style="stop-color:#C62D7D"/>
		<stop  offset="1" style="stop-color:#E82D84"/>
	</linearGradient>
	<path fill="url(#SVGID_1_)" d="M445.5,16h-397C33.3,16,21,28.3,21,43.5v147.2c63.2,11.6,136.9,13.8,214.5,4.5
		c91.4-10.9,173.7-36.1,237.5-69.6V43.5C473,28.3,460.7,16,445.5,16z"/>
</g>
<g id="Слой_4">
	<path fill="#FFFFFF" d="M184.1,111.7c0,9.5,9.3,18.3,23.9,23.3c-2.9,14.7-0.5,26.5,7.5,31.1c8.2,4.7,20.5,1.5,32.1-8.7
		c11.3,9.7,22.8,13.6,30.8,9c8.2-4.8,10.7-17.4,7.7-32.5c15.2-5,23.7-12.6,23.7-22.2c0-9.3-9.3-17.3-23.7-22.2
		c3.2-15.8,0.5-27.3-7.8-32.1c-8-4.6-19.6-0.6-31.1,9.4c-12-10.6-23.4-13.9-31.7-9c-8,4.6-10.3,16.7-7.4,31.6
		C193.9,94.2,184.1,102.4,184.1,111.7z"/>
	<path fill="#56C2DE" d="M283,94.4c-1.2-0.4-2.4-0.8-3.6-1.1c0.2-0.8,0.4-1.6,0.6-2.4c2.7-13.2,0.9-23.8-5.1-27.3
		c-5.8-3.4-15.3,0.1-25,8.5c-0.9,0.8-1.9,1.7-2.8,2.5c-0.6-0.6-1.2-1.1-1.8-1.7c-10.1-8.9-20.2-12.7-26.2-9.2
		c-5.8,3.4-7.5,13.4-5.1,25.9c0.2,1.2,0.5,2.5,0.8,3.7c-1.4,0.4-2.8,0.8-4.1,1.3c-11.8,4.1-19.4,10.6-19.4,17.3
		c0,6.9,8.1,13.8,20.4,18.1c1,0.3,2,0.7,3,0.9c-0.3,1.3-0.6,2.6-0.9,4c-2.3,12.3-0.5,22,5.3,25.4c6,3.5,16-0.1,25.8-8.7
		c0.8-0.7,1.6-1.4,2.3-2.1c1,0.9,2,1.9,3,2.8c9.5,8.2,18.8,11.5,24.6,8.1c6-3.5,7.9-13.9,5.4-26.7c-0.2-1-0.4-2-0.7-3
		c0.7-0.2,1.4-0.4,2.1-0.6c12.8-4.2,21.1-11.1,21.1-18.1C302.8,105,295,98.5,283,94.4L283,94.4z"/>
	<path fill="#FFFFFF" d="M280.2,125.3c-0.6,0.2-1.2,0.4-1.9,0.6c-1.4-4.5-3.3-9.2-5.6-14.1c2.2-4.8,4.1-9.5,5.4-13.9
		c1.1,0.3,2.2,0.7,3.3,1c10.3,3.6,16.6,8.8,16.6,12.9C298.1,116,291.3,121.6,280.2,125.3L280.2,125.3z M275.6,134.4
		c1.1,5.6,1.3,10.7,0.5,14.7c-0.7,3.6-2,6-3.7,6.9c-3.5,2-11-0.6-19.1-7.6c-0.9-0.8-1.9-1.7-2.8-2.6c3.1-3.4,6.3-7.4,9.4-11.9
		c5.4-0.5,10.5-1.3,15.1-2.3C275.2,132.6,275.5,133.5,275.6,134.4L275.6,134.4z M229.3,155.7c-3.4,1.2-6.2,1.2-7.8,0.3
		c-3.5-2-5-9.9-3-20.4c0.2-1.2,0.5-2.5,0.8-3.7c4.6,1,9.6,1.7,15,2.2c3.1,4.3,6.3,8.3,9.6,11.8c-0.7,0.7-1.4,1.3-2.1,2
		C237.4,151.6,233.1,154.3,229.3,155.7L229.3,155.7z M213.2,125.3c-5.4-1.9-9.9-4.3-13-6.9c-2.8-2.4-4.2-4.7-4.2-6.6
		c0-4.1,6.1-9.2,16.2-12.8c1.3-0.4,2.5-0.8,3.8-1.2c1.4,4.5,3.2,9.3,5.4,14.1c-2.2,4.9-4.1,9.7-5.5,14.3
		C215,125.9,214.1,125.6,213.2,125.3z M218.6,88.5c-2.1-10.7-0.7-18.8,2.8-20.8c3.7-2.2,12,0.9,20.7,8.6c0.6,0.5,1.1,1,1.7,1.5
		c-3.2,3.5-6.4,7.4-9.5,11.8c-5.2,0.5-10.3,1.3-14.9,2.3C219.1,90.8,218.8,89.7,218.6,88.5L218.6,88.5z M266.7,100.4
		c-1.1-1.9-2.2-3.7-3.4-5.6c3.6,0.4,7,1,10.2,1.8c-1,3.1-2.2,6.3-3.6,9.6C268.9,104.3,267.8,102.3,266.7,100.4L266.7,100.4z
		 M247.1,81.3c2.2,2.4,4.4,5,6.6,7.9c-4.4-0.2-8.8-0.2-13.2,0C242.6,86.4,244.9,83.7,247.1,81.3L247.1,81.3z M227.3,100.5
		c-1.1,1.9-2.1,3.8-3.1,5.8c-1.4-3.3-2.6-6.5-3.5-9.7c3.2-0.7,6.6-1.3,10.1-1.7C229.6,96.7,228.4,98.6,227.3,100.5z M230.9,128.9
		c-3.7-0.4-7.1-1-10.3-1.7c1-3.2,2.2-6.5,3.6-9.8c1,1.9,2.1,3.9,3.2,5.8C228.5,125.1,229.6,127.1,230.9,128.9z M247.2,142.5
		c-2.3-2.4-4.5-5.1-6.7-8c2.1,0.1,4.3,0.1,6.5,0.1c2.3,0,4.5-0.1,6.7-0.1C251.6,137.4,249.4,140.1,247.2,142.5z M270,117.3
		c1.5,3.4,2.7,6.7,3.7,9.8c-3.2,0.7-6.7,1.3-10.4,1.8c1.2-1.9,2.3-3.8,3.4-5.7C267.9,121.2,268.9,119.3,270,117.3L270,117.3z
		 M262.6,120.8c-1.7,2.9-3.5,5.8-5.4,8.6c-3.3,0.2-6.7,0.4-10.2,0.4s-6.8-0.1-10.1-0.3c-1.9-2.8-3.7-5.7-5.5-8.6
		c-1.7-2.9-3.3-5.9-4.8-9c1.5-3.1,3.1-6.1,4.7-9l0,0c1.7-2.9,3.5-5.8,5.4-8.6c3.3-0.3,6.7-0.4,10.2-0.4s6.9,0.1,10.2,0.4
		c1.9,2.8,3.7,5.7,5.4,8.6c1.7,2.9,3.3,5.9,4.8,9C265.9,114.8,264.3,117.8,262.6,120.8L262.6,120.8z M272.4,67.6
		c3.7,2.2,5.2,10.8,2.8,22.2c-0.2,0.7-0.3,1.5-0.5,2.2c-4.6-1.1-9.7-1.9-14.9-2.4c-3.1-4.4-6.2-8.3-9.4-11.8
		c0.8-0.8,1.7-1.6,2.6-2.4C261.2,68.4,268.9,65.6,272.4,67.6L272.4,67.6z"/>
	<path fill="#56C2DE" d="M247,101.8c5.5,0,10,4.5,10,10s-4.5,10-10,10s-10-4.5-10-10C237.1,106.2,241.5,101.8,247,101.8"/>
</g>
<g id="Слой_8" display="none">
	<path display="inline" fill="#FFCF02" d="M432,277.7H324.1c-5.7,0-10.3-4.6-10.3-10.3v-34.7c0-5.7,4.6-10.3,10.3-10.3H432
		c5.7,0,10.3,4.6,10.3,10.3v34.7C442.3,273,437.7,277.7,432,277.7z"/>
	
		<text transform="matrix(1 0 0 1 319.667 260.7227)" display="inline" fill="#FFFFFF" font-family="'MyriadPro-Bold'" font-size="29.4972px">SHOW ID</text>
</g>
<g id="макет2" display="none">
	<path display="inline" fill="#F2F2F2" d="M445.5,302h-397C33.3,302,21,289.7,21,274.5v-231C21,28.3,33.3,16,48.5,16h397
		c15.2,0,27.5,12.3,27.5,27.5v231C473,289.7,460.7,302,445.5,302z"/>
</g>
<g id="panel" display="none">
	<path display="inline" fill="#FFFFFF" d="M20.5,210.5v65.3c0,15,12.2,27.2,27.2,27.2h397.5c15,0,27.2-12.2,27.2-27.2v-65.3
		L20.5,210.5L20.5,210.5z"/>
</g>
<g id="numbers" display="none">
	<text transform="matrix(1 0 0 1 25.6663 202.7228)" display="inline" font-family="'MyriadPro-Bold'" font-size="25.6824px">123 5656 89898 89</text>
</g>
<g id="barcode" display="none">
	<g display="inline">
		<polygon fill="none" points="51,210.5 51,260.6 117.9,260.6 117.9,231.4 121.8,231.4 121.8,260.6 125.7,260.6 125.7,231.4 
			129.6,231.4 129.6,260.6 133.5,260.6 133.5,231.4 137.4,231.4 137.4,260.6 141.3,260.6 141.3,231.4 156.9,231.4 156.9,260.6 
			160.8,260.6 160.8,231.4 168.6,231.4 168.6,260.6 180.3,260.6 180.3,231.4 184.2,231.4 184.2,260.6 188.1,260.6 188.1,231.4 
			196,231.4 196,260.6 199.9,260.6 199.9,231.4 211.6,231.4 211.6,260.6 215.5,260.6 215.5,231.4 231.1,231.4 231.1,260.6 
			235,260.6 235,231.4 238.9,231.4 238.9,260.6 242.8,260.6 242.8,231.4 246.7,231.4 246.7,260.6 250.6,260.6 250.6,231.4 
			254.5,231.4 254.5,260.6 258.4,260.6 258.4,231.4 262.3,231.4 262.3,260.6 277.9,260.6 277.9,231.4 281.8,231.4 281.8,260.6 
			285.7,260.6 285.7,231.4 293.5,231.4 293.5,260.6 297.5,260.6 297.5,231.4 305.3,231.4 305.3,260.6 313.1,260.6 313.1,231.4 
			317,231.4 317,260.6 324.8,260.6 324.8,231.4 336.5,231.4 336.5,260.6 340.4,260.6 340.4,231.4 344.3,231.4 344.3,260.6 
			348.2,260.6 348.2,231.4 359.9,231.4 359.9,260.6 367.7,260.6 367.7,231.4 371.6,231.4 371.6,260.6 375.5,260.6 375.5,231.4 
			379.4,231.4 379.4,260.6 443,260.6 443,210.5 		"/>
		<rect x="117.9" y="231.4" fill="#020203" width="3.9" height="29.2"/>
		<rect x="125.7" y="231.4" fill="#020203" width="3.9" height="29.2"/>
		<rect x="133.5" y="231.4" fill="#020203" width="3.9" height="29.2"/>
		<rect x="141.3" y="231.4" fill="#020203" width="15.6" height="29.2"/>
		<rect x="160.8" y="231.4" fill="#020203" width="7.8" height="29.2"/>
		<rect x="180.3" y="231.4" fill="#020203" width="3.9" height="29.2"/>
		<rect x="188.1" y="231.4" fill="#020203" width="7.8" height="29.2"/>
		<rect x="199.9" y="231.4" fill="#020203" width="11.7" height="29.2"/>
		<rect x="215.5" y="231.4" fill="#020203" width="15.6" height="29.2"/>
		<rect x="235" y="231.4" fill="#020203" width="3.9" height="29.2"/>
		<rect x="242.8" y="231.4" fill="#020203" width="3.9" height="29.2"/>
		<rect x="250.6" y="231.4" fill="#020203" width="3.9" height="29.2"/>
		<rect x="258.4" y="231.4" fill="#020203" width="3.9" height="29.2"/>
		<rect x="277.9" y="231.4" fill="#020203" width="3.9" height="29.2"/>
		<rect x="285.7" y="231.4" fill="#020203" width="7.8" height="29.2"/>
		<rect x="297.5" y="231.4" fill="#020203" width="7.8" height="29.2"/>
		<rect x="313.1" y="231.4" fill="#020203" width="3.9" height="29.2"/>
		<rect x="324.8" y="231.4" fill="#020203" width="11.7" height="29.2"/>
		<rect x="340.4" y="231.4" fill="#020203" width="3.9" height="29.2"/>
		<rect x="348.2" y="231.4" fill="#020203" width="11.7" height="29.2"/>
		<rect x="367.7" y="231.4" fill="#020203" width="3.9" height="29.2"/>
		<rect x="375.5" y="231.4" fill="#020203" width="3.9" height="29.2"/>
	</g>
</g>
</svg>
