<?xml version="1.0" encoding="utf-8"?>
<!-- Generator: Adobe Illustrator 21.1.0, SVG Export Plug-In . SVG Version: 6.00 Build 0)  -->
<svg version="1.1" xmlns="http://www.w3.org/2000/svg" xmlns:xlink="http://www.w3.org/1999/xlink" x="0px" y="0px"
	 viewBox="0 0 398.7 346" style="enable-background:new 0 0 398.7 346;" xml:space="preserve">
<style type="text/css">
	.st0{fill:#EDEDED;}
	.st1{fill:#545454;}
	.st2{font-family:'TrebuchetMS';}
	.st3{font-size:157.5441px;}
	.st4{fill:#686868;}
</style>
<g id="Слой_2">
</g>
<g id="Слой_1">
	<path class="st0" d="M351.3,253.5l-256,75.8c-4.5,1.3-9.2-1.2-10.6-5.7L35.9,158.4c-1.3-4.5,1.2-9.3,5.8-10.6l256-75.8
		c4.5-1.3,9.2,1.2,10.6,5.7L357,242.9C358.4,247.4,355.8,252.2,351.3,253.5z"/>
</g>
<g id="Слой_4">
	<text transform="matrix(0.9593 -0.2823 0.2823 0.9593 169.8982 264.1343)" class="st1 st2 st3">D</text>
</g>
<g id="Слой_3">
	<g>
		<path class="st4" d="M291.7,68L260,21c-2.6-3.9-7.9-4.9-11.8-2.3L84.3,129.3L291.7,68z"/>
		<path class="st4" d="M347.3,180.1l6.8-4.6c3.9-2.6,4.9-8,2.3-11.9l-24.9-36.8L347.3,180.1z"/>
		<path class="st4" d="M29.4,166.4l-3,2c-3.9,2.6-4.9,7.9-2.3,11.8l16.8,24.8L29.4,166.4z"/>
		<path class="st4" d="M125,326.3c2.4,0.7,5,0.4,7.2-1.1l2.8-1.9L125,326.3z"/>
	</g>
</g>
</svg>
